<?xml version="1.0" encoding="utf-8"?>
<svg version="1.1"
	 id="svg3336" inkscape:version="0.91 r13725" sodipodi:docname="banner.svg" xmlns:cc="http://creativecommons.org/ns#" xmlns:dc="http://purl.org/dc/elements/1.1/" xmlns:inkscape="http://www.inkscape.org/namespaces/inkscape" xmlns:rdf="http://www.w3.org/1999/02/22-rdf-syntax-ns#" xmlns:sodipodi="http://sodipodi.sourceforge.net/DTD/sodipodi-0.dtd" xmlns:svg="http://www.w3.org/2000/svg"
	 xmlns="http://www.w3.org/2000/svg" xmlns:xlink="http://www.w3.org/1999/xlink" x="0px" y="0px" viewBox="0 0 418.9 71.2"
	 style="enable-background:new 0 0 418.9 71.2;" xml:space="preserve">
<style type="text/css">
	.st0{fill:#545454;}
	.st1{fill:#ABABAB;}
	.st2{enable-background:new    ;}
	.st3{fill:#555555;}
	.st4{fill:#ACACAC;}
</style>
<sodipodi:namedview  bordercolor="#666666" borderopacity="1" gridtolerance="10" guidetolerance="10" id="namedview3340" inkscape:current-layer="svg3336" inkscape:cx="249.62589" inkscape:cy="64.315589" inkscape:pageopacity="0" inkscape:pageshadow="2" inkscape:window-height="1017" inkscape:window-maximized="1" inkscape:window-width="1920" inkscape:window-x="1912" inkscape:window-y="-8" inkscape:zoom="2.2102741" objecttolerance="10" pagecolor="#ffffff" showgrid="false">
	</sodipodi:namedview>
<path id="Shape_1" inkscape:label="Shape 1" class="st0" d="M13.3,0l13.3,13.3L34,5.9V34H7.4l6.7-6.7l-14-14L13.3,0z"/>
<path id="Shape_1_copy" inkscape:label="Shape 1 copy" class="st1" d="M54.7,68L41.4,54.7L34,62.1V34h26.6L54,40.7l14,14L54.7,68z"
	/>
<g class="st2">
	<path class="st3" d="M95.6,54.2c-4.6,0-8.1-1.4-10.7-4.3S81,43,81,37.9c0-5.3,1.3-9.4,4-12.3c2.7-2.9,6.3-4.4,11-4.4
		c2.8,0,5.4,0.5,7.9,1.4l-0.8,2.6c-2.8-0.9-5.1-1.4-7.2-1.4c-3.9,0-6.9,1.2-8.9,3.6c-2,2.4-3,5.9-3,10.4c0,4.3,1,7.7,3,10.1
		c2,2.4,4.8,3.6,8.4,3.6c2.9,0,5.6-0.5,8.1-1.6v2.7C101.6,53.7,98.9,54.2,95.6,54.2z"/>
	<path class="st3" d="M137.7,37.7c0,5.2-1.3,9.3-3.8,12.2s-6,4.4-10.4,4.4c-2.8,0-5.3-0.7-7.4-2c-2.1-1.3-3.8-3.3-4.9-5.8
		c-1.1-2.5-1.7-5.4-1.7-8.7c0-5.2,1.3-9.2,3.8-12.1s6-4.4,10.4-4.4c4.4,0,7.8,1.5,10.3,4.4S137.7,32.6,137.7,37.7z M112.6,37.7
		c0,4.4,1,7.8,2.9,10.2c1.9,2.5,4.6,3.7,8.2,3.7s6.2-1.2,8.2-3.7c1.9-2.5,2.9-5.9,2.9-10.2c0-4.4-1-7.8-2.9-10.2
		c-1.9-2.4-4.7-3.6-8.2-3.6s-6.2,1.2-8.1,3.6S112.6,33.3,112.6,37.7z"/>
	<path class="st3" d="M186.3,53.6V32.8c0-3.1-0.6-5.4-1.8-6.8c-1.2-1.4-3.1-2.1-5.6-2.1c-3.3,0-5.7,0.9-7.2,2.7
		c-1.6,1.8-2.3,4.6-2.3,8.5v18.7h-3V31.9c0-5.4-2.5-8.1-7.4-8.1c-3.3,0-5.8,1-7.3,2.9s-2.3,5.1-2.3,9.3v17.6h-2.9V21.8h2.4l0.6,4.4
		h0.2c0.9-1.6,2.1-2.8,3.8-3.7c1.6-0.9,3.4-1.3,5.4-1.3c5,0,8.2,1.9,9.7,5.7h0.1c1-1.8,2.4-3.2,4.2-4.2c1.7-1,3.7-1.5,6-1.5
		c3.5,0,6.1,0.9,7.8,2.8c1.7,1.9,2.6,4.8,2.6,8.8v20.8H186.3z"/>
	<path class="st3" d="M213.1,54.2c-4.9,0-8.5-1.8-10.7-5.5h-0.2l0.1,2.5c0.1,1.4,0.1,3,0.1,4.7v12.1h-2.9V21.8h2.5l0.6,4.5h0.2
		c2.2-3.4,5.7-5.2,10.5-5.2c4.3,0,7.6,1.4,9.8,4.2s3.4,6.9,3.4,12.3c0,5.2-1.2,9.3-3.6,12.2S217.2,54.2,213.1,54.2z M213.1,51.6
		c3.3,0,5.8-1.2,7.6-3.6s2.7-5.8,2.7-10.2c0-9.4-3.4-14-10.1-14c-3.7,0-6.4,1-8.2,3.1c-1.7,2-2.6,5.4-2.6,10v0.9
		c0,5,0.8,8.5,2.5,10.7S209.3,51.6,213.1,51.6z"/>
	<path class="st3" d="M254.6,53.6l-0.7-5h-0.2c-1.6,2.1-3.2,3.5-4.9,4.4s-3.7,1.3-6,1.3c-3.1,0-5.6-0.8-7.3-2.4s-2.6-3.8-2.6-6.7
		c0-3.1,1.3-5.5,3.9-7.2s6.3-2.6,11.2-2.7l6.1-0.2v-2.1c0-3-0.6-5.3-1.8-6.9s-3.2-2.3-5.9-2.3c-2.9,0-6,0.8-9.2,2.5l-1.1-2.5
		c3.5-1.6,7-2.5,10.4-2.5c3.5,0,6.1,0.9,7.8,2.7s2.6,4.6,2.6,8.5v21.2H254.6z M242.8,51.6c3.4,0,6.1-1,8-2.9s2.9-4.6,2.9-8.1v-3.1
		l-5.6,0.2c-4.5,0.2-7.7,0.9-9.6,2.1s-2.9,3-2.9,5.5c0,2,0.6,3.5,1.8,4.6S240.6,51.6,242.8,51.6z"/>
	<path class="st3" d="M279.7,54.2c-4.6,0-8.1-1.4-10.7-4.3s-3.9-6.9-3.9-12c0-5.3,1.3-9.4,4-12.3s6.3-4.4,11-4.4
		c2.8,0,5.4,0.5,7.9,1.4l-0.8,2.6c-2.8-0.9-5.1-1.4-7.2-1.4c-3.9,0-6.9,1.2-8.9,3.6s-3,5.9-3,10.4c0,4.3,1,7.7,3,10.1
		s4.8,3.6,8.4,3.6c2.9,0,5.6-0.5,8.1-1.6v2.7C285.7,53.7,283,54.2,279.7,54.2z"/>
	<path class="st3" d="M303.9,51.6c1.8,0,3.4-0.2,4.8-0.5v2.3c-1.4,0.5-3,0.7-4.9,0.7c-2.8,0-4.9-0.8-6.2-2.3s-2-3.9-2-7.1V24.3h-4.7
		v-1.7l4.7-1.3l1.5-7.2h1.5v7.7h9.3v2.5h-9.3v20.2c0,2.4,0.4,4.2,1.3,5.4S302.1,51.6,303.9,51.6z"/>
</g>
<g class="st2">
	<path class="st4" d="M331.9,29.6h17v22.2c-2.8,0.9-5.3,1.5-7.8,1.9s-4.9,0.5-7.5,0.5c-6.5,0-11.4-1.9-14.8-5.7s-5.1-9.3-5.1-16.4
		c0-6.9,2-12.3,5.9-16.2s9.4-5.8,16.5-5.8c4.4,0,8.6,0.9,12.7,2.6l-3,7.3c-3.1-1.6-6.4-2.3-9.8-2.3c-3.9,0-7.1,1.3-9.4,4
		s-3.5,6.2-3.5,10.6c0,4.6,1,8.2,2.9,10.6s4.7,3.7,8.3,3.7c1.9,0,3.8-0.2,5.8-0.6v-8.9h-8.1V29.6z"/>
	<path class="st4" d="M394,10.8v27.7c0,3.2-0.7,5.9-2.1,8.3s-3.5,4.2-6.1,5.5s-5.8,1.9-9.5,1.9c-5.5,0-9.8-1.4-12.8-4.2
		s-4.6-6.7-4.6-11.6V10.8h9.1V37c0,3.3,0.7,5.7,2,7.3s3.5,2.3,6.6,2.3c3,0,5.1-0.8,6.5-2.3s2-4,2-7.3V10.8H394z"/>
	<path class="st4" d="M404.5,53.6V10.8h9.1v42.8H404.5z"/>
</g>
</svg>
