<?xml version="1.0" encoding="UTF-8" standalone="no"?>
<svg
   xmlns:dc="http://purl.org/dc/elements/1.1/"
   xmlns:cc="http://creativecommons.org/ns#"
   xmlns:rdf="http://www.w3.org/1999/02/22-rdf-syntax-ns#"
   xmlns:svg="http://www.w3.org/2000/svg"
   xmlns="http://www.w3.org/2000/svg"
   xmlns:sodipodi="http://sodipodi.sourceforge.net/DTD/sodipodi-0.dtd"
   xmlns:inkscape="http://www.inkscape.org/namespaces/inkscape"
   width="469"
   height="105"
   id="svg3336"
   version="1.1"
   inkscape:version="0.92.2 (5c3e80d, 2017-08-06)"
   sodipodi:docname="dbanner.svg">
  <metadata
     id="metadata3344">
    <rdf:RDF>
      <cc:Work
         rdf:about="">
        <dc:format>image/svg+xml</dc:format>
        <dc:type
           rdf:resource="http://purl.org/dc/dcmitype/StillImage" />
        <dc:title />
      </cc:Work>
    </rdf:RDF>
  </metadata>
  <defs
     id="defs3342" />
  <sodipodi:namedview
     pagecolor="#ffffff"
     bordercolor="#666666"
     borderopacity="1"
     objecttolerance="10"
     gridtolerance="10"
     guidetolerance="10"
     inkscape:pageopacity="0"
     inkscape:pageshadow="2"
     inkscape:window-width="1920"
     inkscape:window-height="1017"
     id="namedview3340"
     showgrid="false"
     inkscape:zoom="2.2102741"
     inkscape:cx="161.62775"
     inkscape:cy="64.315589"
     inkscape:window-x="1912"
     inkscape:window-y="-8"
     inkscape:window-maximized="1"
     inkscape:current-layer="svg3336" />
  <path
     d="M 24.304325,30.999998 C 24.304325,30.999998 37.608692,44.304348 37.608692,44.304348 C 37.608692,44.304348 44.999994,36.913042 44.999994,36.913042 C 44.999994,36.913042 44.999994,64.999996 44.999994,64.999996 C 44.999994,64.999996 18.391289,64.999996 18.391289,64.999996 C 18.391289,64.999996 25.043472,58.347825 25.043472,58.347825 C 25.043472,58.347825 10.999987,44.304348 10.999987,44.304348 C 10.999987,44.304348 24.304325,30.999998 24.304325,30.999998 Z"
     fill-rule="nonzero"
     style="stroke: none; fill: rgb(84, 84, 84)"
     inkscape:label="Shape 1"
     id="Shape 1" />
  <path
     d="M 65.695635,98.999994 C 65.695635,98.999994 52.391297,85.695651 52.391297,85.695651 C 52.391297,85.695651 44.999994,93.086956 44.999994,93.086956 C 44.999994,93.086956 44.999994,64.999996 44.999994,64.999996 C 44.999994,64.999996 71.608672,64.999996 71.608672,64.999996 C 71.608672,64.999996 64.956516,71.652168 64.956516,71.652168 C 64.956516,71.652168 78.999974,85.695651 78.999974,85.695651 C 78.999974,85.695651 65.695635,98.999994 65.695635,98.999994 Z"
     fill-rule="nonzero"
     style="stroke: none; fill: rgb(171, 171, 171)"
     inkscape:label="Shape 1 copy"
     id="Shape 1 copy" />
  <text
     xml:space="preserve"
     style="font-style:normal;font-weight:normal;line-height:0%;font-family:sans-serif;letter-spacing:0px;word-spacing:0px;fill:#000000;fill-opacity:1;stroke:none;stroke-width:1px;stroke-linecap:butt;stroke-linejoin:miter;stroke-opacity:1"
     x="96.820572"
     y="71.519989"
     id="text3428"><tspan
       sodipodi:role="line"
       id="tspan3430"
       x="96.820572"
       y="71.519989"
       style="font-size:77.5px;line-height:1.25"> </tspan></text>
  <g
     aria-label="compactGUI"
     style="font-style:normal;font-weight:normal;line-height:0%;font-family:sans-serif;letter-spacing:0px;word-spacing:0px;fill:#000000;fill-opacity:1;stroke:none;stroke-width:1px;stroke-linecap:butt;stroke-linejoin:miter;stroke-opacity:1"
     id="text3432">
    <path
       d="m 106.58794,85.226471 q -6.826175,0 -10.693363,-4.306641 -3.867187,-4.30664 -3.867187,-12.011718 0,-7.910157 4.013671,-12.304688 4.013669,-4.423828 10.986329,-4.423828 4.13086,0 7.91016,1.435547 l -0.79102,2.578125 q -4.13086,-1.376953 -7.17773,-1.376953 -5.85938,0 -8.876957,3.632812 -3.017578,3.603516 -3.017578,10.400391 0,6.445312 3.017578,10.107422 3.017577,3.632812 8.437497,3.632812 4.33594,0 8.05664,-1.552734 v 2.695312 q -3.04687,1.494141 -7.99804,1.494141 z"
       style="font-size:60px;fill:#555555;fill-opacity:1"
       id="path843" />
    <path
       d="m 148.68755,68.673737 q 0,7.792968 -3.7793,12.1875 -3.7793,4.365234 -10.42969,4.365234 -4.18945,0 -7.38281,-2.021484 -3.19336,-2.021485 -4.89258,-5.800782 -1.69922,-3.779297 -1.69922,-8.730468 0,-7.792969 3.7793,-12.128907 3.7793,-4.365234 10.37109,-4.365234 6.5625,0 10.28321,4.423828 3.75,4.394531 3.75,12.070313 z m -25.13672,0 q 0,6.5625 2.87109,10.253906 2.90039,3.662109 8.17383,3.662109 5.27344,0 8.14453,-3.662109 2.90039,-3.691406 2.90039,-10.253906 0,-6.591797 -2.92969,-10.22461 -2.90039,-3.632812 -8.17382,-3.632812 -5.27344,0 -8.14454,3.632812 -2.84179,3.603516 -2.84179,10.22461 z"
       style="font-size:60px;fill:#555555;fill-opacity:1"
       id="path845" />
    <path
       d="M 197.29106,84.640533 V 63.751862 q 0,-4.658204 -1.8164,-6.796875 -1.81641,-2.138672 -5.56641,-2.138672 -4.89258,0 -7.23633,2.695312 -2.34375,2.695313 -2.34375,8.466797 v 18.662109 h -2.95898 V 62.872955 q 0,-8.05664 -7.38282,-8.05664 -5.00976,0 -7.29492,2.929687 -2.28515,2.900391 -2.28515,9.316406 v 17.578125 h -2.90039 V 52.79483 h 2.40234 l 0.61523,4.365235 h 0.17578 q 1.31836,-2.373047 3.75,-3.66211 2.43165,-1.318359 5.36133,-1.318359 7.5293,0 9.66797,5.654297 h 0.11719 q 1.55273,-2.72461 4.16016,-4.189453 2.63671,-1.464844 5.97656,-1.464844 5.21484,0 7.82226,2.783203 2.60743,2.783203 2.60743,8.847656 v 20.830078 z"
       style="font-size:60px;fill:#555555;fill-opacity:1"
       id="path847" />
    <path
       d="m 224.0977,85.226471 q -7.35351,0 -10.72265,-5.507813 h -0.20508 l 0.0879,2.460938 q 0.11719,2.167969 0.11719,4.746094 v 12.128906 h -2.90039 V 52.79483 h 2.46093 l 0.55664,4.541016 h 0.17578 q 3.28125,-5.15625 10.48829,-5.15625 6.44531,0 9.81445,4.248047 3.39844,4.21875 3.39844,12.304687 0,7.851563 -3.57422,12.1875 -3.54492,4.306641 -9.69727,4.306641 z m -0.0586,-2.578125 q 4.89258,0 7.55859,-3.632813 2.69531,-3.632812 2.69531,-10.166015 0,-14.033203 -10.13671,-14.033203 -5.56641,0 -8.17383,3.076172 -2.60742,3.046875 -2.60742,9.960937 v 0.9375 q 0,7.470703 2.49023,10.664063 2.51953,3.193359 8.17383,3.193359 z"
       style="font-size:60px;fill:#555555;fill-opacity:1"
       id="path849" />
    <path
       d="m 265.55278,84.640533 -0.73242,-5.039062 h -0.23438 q -2.40234,3.076172 -4.95117,4.365234 -2.51953,1.259766 -5.97656,1.259766 -4.6875,0 -7.29492,-2.402344 -2.60742,-2.402344 -2.60742,-6.65039 0,-4.658204 3.86718,-7.236329 3.89649,-2.578125 11.25,-2.724609 l 6.06446,-0.175781 v -2.109375 q 0,-4.541016 -1.84571,-6.855469 -1.8457,-2.314453 -5.94726,-2.314453 -4.42383,0 -9.16992,2.460937 l -1.08399,-2.519531 q 5.24414,-2.460937 10.37109,-2.460937 5.24415,0 7.82227,2.724609 2.60742,2.724609 2.60742,8.496094 v 21.18164 z m -11.71875,-2.050781 q 5.09766,0 8.02734,-2.90039 2.95899,-2.929688 2.95899,-8.115235 v -3.134765 l -5.56641,0.234375 q -6.70898,0.322265 -9.58008,2.109375 -2.84179,1.757812 -2.84179,5.507812 0,2.988281 1.8164,4.658203 1.84571,1.640625 5.18555,1.640625 z"
       style="font-size:60px;fill:#555555;fill-opacity:1"
       id="path851" />
    <path
       d="m 290.6895,85.226471 q -6.82617,0 -10.69336,-4.306641 -3.86719,-4.30664 -3.86719,-12.011718 0,-7.910157 4.01367,-12.304688 4.01368,-4.423828 10.98633,-4.423828 4.13086,0 7.91016,1.435547 l -0.79102,2.578125 q -4.13086,-1.376953 -7.17773,-1.376953 -5.85938,0 -8.87695,3.632812 -3.01758,3.603516 -3.01758,10.400391 0,6.445312 3.01758,10.107422 3.01757,3.632812 8.4375,3.632812 4.33593,0 8.05664,-1.552734 v 2.695312 q -3.04688,1.494141 -7.99805,1.494141 z"
       style="font-size:60px;fill:#555555;fill-opacity:1"
       id="path853" />
    <path
       d="m 314.85942,82.648346 q 2.75391,0 4.80469,-0.46875 v 2.34375 q -2.10938,0.703125 -4.86328,0.703125 -4.21875,0 -6.24024,-2.255859 -1.99218,-2.25586 -1.99218,-7.089844 V 55.314362 h -4.7168 v -1.699219 l 4.7168,-1.31836 1.46484,-7.207031 h 1.49414 v 7.705078 h 9.3457 v 2.519532 h -9.3457 v 20.15625 q 0,3.662109 1.28906,5.419921 1.28906,1.757813 4.04297,1.757813 z"
       style="font-size:60px;fill:#555555;fill-opacity:1"
       id="path855" />
    <path
       d="m 342.92583,60.587799 h 16.99218 V 82.79483 q -4.13085,1.347657 -7.79296,1.875 -3.63282,0.556641 -7.44141,0.556641 -9.69727,0 -14.82422,-5.683594 -5.09766,-5.71289 -5.09766,-16.376953 0,-10.371094 5.91797,-16.171875 5.94727,-5.800781 16.46485,-5.800781 6.59179,0 12.71484,2.636719 l -3.01758,7.265625 q -4.6875,-2.34375 -9.75586,-2.34375 -5.88867,0 -9.43359,3.955078 -3.54492,3.955078 -3.54492,10.634765 0,6.972657 2.84179,10.664063 2.8711,3.662109 8.32032,3.662109 2.84179,0 5.77148,-0.585937 v -8.935547 h -8.11523 z"
       style="font-style:normal;font-variant:normal;font-weight:bold;font-stretch:normal;font-size:60px;font-family:'Open Sans';-inkscape-font-specification:'Open Sans Bold';fill:#acacac;fill-opacity:1"
       id="path857" />
    <path
       d="m 405.00591,41.808502 v 27.714844 q 0,4.746094 -2.13868,8.320312 -2.10937,3.574219 -6.12304,5.478516 -4.01368,1.904297 -9.49219,1.904297 -8.26172,0 -12.83203,-4.21875 -4.57031,-4.248047 -4.57031,-11.601563 V 41.808502 h 9.05273 v 26.220703 q 0,4.951172 1.99219,7.265625 1.99218,2.314453 6.59179,2.314453 4.45313,0 6.44532,-2.314453 2.02148,-2.34375 2.02148,-7.324218 v -26.16211 z"
       style="font-style:normal;font-variant:normal;font-weight:bold;font-stretch:normal;font-size:60px;font-family:'Open Sans';-inkscape-font-specification:'Open Sans Bold';fill:#acacac;fill-opacity:1"
       id="path859" />
    <path
       d="M 415.49419,84.640533 V 41.808502 h 9.08203 v 42.832031 z"
       style="font-style:normal;font-variant:normal;font-weight:bold;font-stretch:normal;font-size:60px;font-family:'Open Sans';-inkscape-font-specification:'Open Sans Bold';fill:#acacac;fill-opacity:1"
       id="path861" />
  </g>
</svg>
