<?xml version="1.0" encoding="UTF-8"?>
<svg width="469" height="105" version="1.1" xmlns="http://www.w3.org/2000/svg" xmlns:cc="http://creativecommons.org/ns#" xmlns:dc="http://purl.org/dc/elements/1.1/" xmlns:rdf="http://www.w3.org/1999/02/22-rdf-syntax-ns#">
 <metadata>
  <rdf:RDF>
   <cc:Work rdf:about="">
    <dc:format>image/svg+xml</dc:format>
    <dc:type rdf:resource="http://purl.org/dc/dcmitype/StillImage"/>
    <dc:title/>
   </cc:Work>
  </rdf:RDF>
 </metadata>
 <path d="m24.304 31 13.304 13.304s7.3913-7.3913 7.3913-7.3913v28.087h-26.609l6.6522-6.6522-14.043-14.043 13.304-13.304z" fill="#545454"/>
 <path id="Shape 1 copy" d="m65.696 99-13.304-13.304s-7.3913 7.3913-7.3913 7.3913v-28.087h26.609s-6.6522 6.6522-6.6522 6.6522l14.043 14.043-13.304 13.304z" fill="#ababab"/>
 <text x="96.820572" y="71.519989" fill="#000000" font-family="sans-serif" letter-spacing="0px" stroke-width="1px" word-spacing="0px" style="line-height:0%" xml:space="preserve"><tspan x="96.820572" y="71.519989" font-size="77.5px" style="line-height:1.25"> </tspan></text>
 <g stroke-width="1px" aria-label="compactGUI">
  <g fill="#555">
   <path d="m106.59 85.226q-6.8262 0-10.693-4.3066-3.8672-4.3066-3.8672-12.012 0-7.9102 4.0137-12.305 4.0137-4.4238 10.986-4.4238 4.1309 0 7.9102 1.4355l-0.79102 2.5781q-4.1309-1.377-7.1777-1.377-5.8594 0-8.877 3.6328-3.0176 3.6035-3.0176 10.4 0 6.4453 3.0176 10.107 3.0176 3.6328 8.4375 3.6328 4.3359 0 8.0566-1.5527v2.6953q-3.0469 1.4941-7.998 1.4941z"/>
   <path d="m148.69 68.674q0 7.793-3.7793 12.188-3.7793 4.3652-10.43 4.3652-4.1894 0-7.3828-2.0215-3.1934-2.0215-4.8926-5.8008t-1.6992-8.7305q0-7.793 3.7793-12.129 3.7793-4.3652 10.371-4.3652 6.5625 0 10.283 4.4238 3.75 4.3945 3.75 12.07zm-25.137 0q0 6.5625 2.8711 10.254 2.9004 3.6621 8.1738 3.6621t8.1445-3.6621q2.9004-3.6914 2.9004-10.254 0-6.5918-2.9297-10.225-2.9004-3.6328-8.1738-3.6328-5.2734 0-8.1445 3.6328-2.8418 3.6035-2.8418 10.225z"/>
   <path d="m197.29 84.641v-20.889q0-4.6582-1.8164-6.7969-1.8164-2.1387-5.5664-2.1387-4.8926 0-7.2363 2.6953-2.3438 2.6953-2.3438 8.4668v18.662h-2.959v-21.768q0-8.0566-7.3828-8.0566-5.0098 0-7.2949 2.9297-2.2852 2.9004-2.2852 9.3164v17.578h-2.9004v-31.846h2.4023l0.61523 4.3652h0.17578q1.3184-2.373 3.75-3.6621 2.4316-1.3184 5.3613-1.3184 7.5293 0 9.668 5.6543h0.11719q1.5527-2.7246 4.1602-4.1895 2.6367-1.4648 5.9766-1.4648 5.2148 0 7.8223 2.7832 2.6074 2.7832 2.6074 8.8477v20.83z"/>
   <path d="m224.1 85.226q-7.3535 0-10.723-5.5078h-0.20508l0.0879 2.4609q0.11719 2.168 0.11719 4.7461v12.129h-2.9004v-46.26h2.4609l0.55664 4.541h0.17578q3.2812-5.1562 10.488-5.1562 6.4453 0 9.8144 4.248 3.3984 4.2188 3.3984 12.305 0 7.8516-3.5742 12.188-3.5449 4.3066-9.6973 4.3066zm-0.0586-2.5781q4.8926 0 7.5586-3.6328 2.6953-3.6328 2.6953-10.166 0-14.033-10.137-14.033-5.5664 0-8.1738 3.0762-2.6074 3.0469-2.6074 9.9609v0.9375q0 7.4707 2.4902 10.664 2.5195 3.1934 8.1738 3.1934z"/>
   <path d="m265.55 84.641-0.73242-5.0391h-0.23438q-2.4023 3.0762-4.9512 4.3652-2.5195 1.2598-5.9766 1.2598-4.6875 0-7.2949-2.4023t-2.6074-6.6504q0-4.6582 3.8672-7.2363 3.8965-2.5781 11.25-2.7246l6.0645-0.17578v-2.1094q0-4.541-1.8457-6.8555-1.8457-2.3145-5.9473-2.3145-4.4238 0-9.1699 2.4609l-1.084-2.5195q5.2441-2.4609 10.371-2.4609 5.2442 0 7.8223 2.7246 2.6074 2.7246 2.6074 8.4961v21.182zm-11.719-2.0508q5.0977 0 8.0273-2.9004 2.959-2.9297 2.959-8.1152v-3.1348l-5.5664 0.23438q-6.709 0.32226-9.5801 2.1094-2.8418 1.7578-2.8418 5.5078 0 2.9883 1.8164 4.6582 1.8457 1.6406 5.1856 1.6406z"/>
   <path d="m290.69 85.226q-6.8262 0-10.693-4.3066-3.8672-4.3066-3.8672-12.012 0-7.9102 4.0137-12.305 4.0137-4.4238 10.986-4.4238 4.1309 0 7.9102 1.4355l-0.79102 2.5781q-4.1309-1.377-7.1777-1.377-5.8594 0-8.877 3.6328-3.0176 3.6035-3.0176 10.4 0 6.4453 3.0176 10.107 3.0176 3.6328 8.4375 3.6328 4.3359 0 8.0566-1.5527v2.6953q-3.0469 1.4941-7.998 1.4941z"/>
   <path d="m314.86 82.648q2.7539 0 4.8047-0.46875v2.3438q-2.1094 0.70312-4.8633 0.70312-4.2188 0-6.2402-2.2559-1.9922-2.2559-1.9922-7.0898v-20.566h-4.7168v-1.6992l4.7168-1.3184 1.4648-7.207h1.4941v7.7051h9.3457v2.5195h-9.3457v20.156q0 3.6621 1.2891 5.4199 1.2891 1.7578 4.043 1.7578z"/>
  </g>
  <g fill="#acacac">
   <path d="m342.93 60.588h16.992v22.207q-4.1308 1.3477-7.793 1.875-3.6328 0.55664-7.4414 0.55664-9.6973 0-14.824-5.6836-5.0977-5.7129-5.0977-16.377 0-10.371 5.918-16.172 5.9473-5.8008 16.465-5.8008 6.5918 0 12.715 2.6367l-3.0176 7.2656q-4.6875-2.3438-9.7559-2.3438-5.8887 0-9.4336 3.9551t-3.5449 10.635q0 6.9727 2.8418 10.664 2.8711 3.6621 8.3203 3.6621 2.8418 0 5.7715-0.58594v-8.9355h-8.1152z"/>
   <path d="m405.01 41.809v27.715q0 4.7461-2.1387 8.3203-2.1094 3.5742-6.123 5.4785-4.0137 1.9043-9.4922 1.9043-8.2617 0-12.832-4.2188-4.5703-4.248-4.5703-11.602v-27.598h9.0527v26.221q0 4.9512 1.9922 7.2656 1.9922 2.3145 6.5918 2.3145 4.4531 0 6.4453-2.3145 2.0215-2.3438 2.0215-7.3242v-26.162z"/>
   <path d="m415.49 84.641v-42.832h9.082v42.832z"/>
  </g>
 </g>
</svg>
