<?xml version="1.0" encoding="UTF-8"?>
<svg version="1.1" viewBox="0 68.05 413.55 68.05" xmlns="http://www.w3.org/2000/svg" xmlns:cc="http://creativecommons.org/ns#" xmlns:dc="http://purl.org/dc/elements/1.1/" xmlns:rdf="http://www.w3.org/1999/02/22-rdf-syntax-ns#">
 <metadata>
  <rdf:RDF>
   <cc:Work rdf:about="">
    <dc:format>image/svg+xml</dc:format>
    <dc:type rdf:resource="http://purl.org/dc/dcmitype/StillImage"/>
    <dc:title>dbanner</dc:title>
   </cc:Work>
  </rdf:RDF>
 </metadata>
 <defs>
  <style>.cls-1 {
        fill: #545454;
      }
      .cls-2 {
        fill: #ababab;
      }
      .cls-3 {
        isolation: isolate;
      }
      .cls-4 {
        fill: #555;
      }
      .cls-5 {
        fill: #acacac;
      }</style>
 </defs>
 <title>dbanner</title>
 <path class="cls-1" d="M13.3,0l13.3,13.3L34,5.91V34H7.39L14,27.35,0,13.3Z" data-name="Shape 1"/>
 <path id="Shape_1_copy" class="cls-2" d="M54.7,68,41.39,54.7,34,62.09V34H60.61L54,40.65l14,14Z" data-name="Shape 1 copy"/>
 <g class="cls-3">
  <g class="cls-3">
   <path class="cls-4" d="m95.59 54.23q-6.83 0-10.69-4.31t-3.9-12.01q0-7.91 4-12.32t11-4.41a22.09 22.09 0 0 1 7.91 1.44l-0.79 2.58a23.22 23.22 0 0 0-7.12-1.38q-5.86 0-8.88 3.62t-3 10.42q0 6.45 3 10.09a10.34 10.34 0 0 0 8.44 3.65 20.71 20.71 0 0 0 8.03-1.6v2.7a18.26 18.26 0 0 1-8 1.53z"/>
   <path class="cls-4" d="m137.72 37.67q0 7.79-3.78 12.17t-10.43 4.38a13.5 13.5 0 0 1-7.38-2 12.93 12.93 0 0 1-4.89-5.8 21.1 21.1 0 0 1-1.7-8.73q0-7.79 3.78-12.14t10.37-4.35q6.56 0 10.3 4.41t3.73 12.06zm-25.14 0q0 6.56 2.89 10.24a10.89 10.89 0 0 0 16.32 0q2.89-3.68 2.89-10.24t-2.92-10.22a9.9 9.9 0 0 0-8.19-3.63 9.75 9.75 0 0 0-8.13 3.62q-2.86 3.61-2.86 10.23z"/>
   <path class="cls-4" d="M186.32,53.64V32.75q0-4.66-1.82-6.8t-5.57-2.14q-4.89,0-7.24,2.7T169.36,35V53.64h-3V31.87q0-8.06-7.38-8.06-5,0-7.29,2.92t-2.29,9.33V53.64h-2.9V21.79h2.4l.62,4.37h.18a9.13,9.13,0,0,1,3.75-3.68,11.16,11.16,0,0,1,5.36-1.3q7.53,0,9.67,5.65h.12a10.83,10.83,0,0,1,4.17-4.19,12,12,0,0,1,6-1.46q5.21,0,7.82,2.78t2.61,8.85V53.64Z"/>
   <path class="cls-4" d="M213.13,54.23q-7.35,0-10.72-5.51h-.21l.09,2.46q.12,2.17.12,4.75V68.05h-2.9V21.79H202l.56,4.54h.18q3.28-5.16,10.49-5.16,6.44,0,9.83,4.23t3.38,12.32q0,7.85-3.56,12.17A11.91,11.91,0,0,1,213.13,54.23Zm-.06-2.58A8.86,8.86,0,0,0,220.64,48q2.68-3.63,2.68-10.17,0-14-10.14-14-5.57,0-8.17,3.06t-2.61,10v.94q0,7.47,2.5,10.66T213.07,51.65Z"/>
   <path class="cls-4" d="M254.55,53.64l-.73-5h-.23A15.12,15.12,0,0,1,248.65,53a13.19,13.19,0,0,1-6,1.27q-4.69,0-7.29-2.4a8.59,8.59,0,0,1-2.61-6.65,8.21,8.21,0,0,1,3.88-7.24q3.88-2.58,11.24-2.72l6.06-.18V32.93q0-4.54-1.85-6.86t-5.95-2.31A19.89,19.89,0,0,0,237,26.22l-1.08-2.52a24.27,24.27,0,0,1,10.37-2.46q5.24,0,7.84,2.72t2.59,8.5V53.64Zm-11.72-2.05a10.93,10.93,0,0,0,8-2.92q2.94-2.92,2.94-8.1V37.44l-5.57.23q-6.71.32-9.57,2.09a6,6,0,0,0-2.86,5.52,5.94,5.94,0,0,0,1.83,4.64A7.44,7.44,0,0,0,242.83,51.59Z"/>
   <path class="cls-4" d="m279.72 54.23q-6.83 0-10.69-4.31t-3.87-12q0-7.91 4-12.32t11-4.41a22.09 22.09 0 0 1 7.91 1.44l-0.79 2.58a23.22 23.22 0 0 0-7.18-1.38q-5.86 0-8.88 3.62t-3 10.42q0 6.45 3 10.09a10.34 10.34 0 0 0 8.44 3.65 20.71 20.71 0 0 0 8.06-1.61v2.7a18.26 18.26 0 0 1-8 1.53z"/>
   <path class="cls-4" d="M303.92,51.65a21.76,21.76,0,0,0,4.8-.47v2.34a15.37,15.37,0,0,1-4.86.7q-4.22,0-6.23-2.26t-2-7.09V24.31h-4.72v-1.7l4.72-1.32,1.46-7.21h1.49v7.71h9.35v2.52h-9.35V44.47a9.2,9.2,0,0,0,1.29,5.42A4.68,4.68,0,0,0,303.92,51.65Z"/>
  </g>
  <g class="cls-3">
   <path class="cls-5" d="M331.93,29.59h17V51.79a47.91,47.91,0,0,1-7.78,1.89,50.66,50.66,0,0,1-7.46.54q-9.7,0-14.81-5.7t-5.11-16.36q0-10.37,5.93-16.17t16.45-5.8a31.83,31.83,0,0,1,12.71,2.64l-3,7.27a21.55,21.55,0,0,0-9.76-2.34,12,12,0,0,0-9.43,4q-3.54,4-3.54,10.63,0,7,2.86,10.65t8.31,3.68a29.38,29.38,0,0,0,5.77-.59V37.15h-8.12Z"/>
   <path class="cls-5" d="M394,10.81V38.52a16,16,0,0,1-2.12,8.32,13.82,13.82,0,0,1-6.14,5.48,22,22,0,0,1-9.49,1.9q-8.26,0-12.83-4.23t-4.57-11.59V10.81h9.05V37q0,5,2,7.27t6.59,2.31q4.45,0,6.46-2.33t2-7.31V10.81Z"/>
   <path class="cls-5" d="M404.46,53.64V10.81h9.08V53.64Z"/>
  </g>
 </g>
</svg>
